<svg width="368" height="447" viewBox="0 0 368 447" fill="none" xmlns="http://www.w3.org/2000/svg">
<g clip-path="url(#clip0)">
<rect width="368" height="447" transform="matrix(-1 0 0 1 368 0)" fill="transparent"/>
<path d="M240 159V143H128V159H96V175H80V191H64V207H48V239H32V271H48V287H64V303H80V319H112V335H272V319H304V303H320V287H336V239H320V207H304V175H272V159H240Z" fill="black"/>
<path d="M176 287H224V271H240V255H160V271H176V287Z" fill="white"/>
<path d="M144 255V239H128V223H112V239H96V255H112V239H128V255H144Z" fill="white"/>
<path d="M304 255V239H288V223H272V239H256V255H272V239H288V255H304Z" fill="white"/>
<path fill-rule="evenodd" clip-rule="evenodd" d="M240 79V95H272V111H288V127H304V143H336V175H352V207H368V319H352V351H336V367H320V383H304V399H272V415H96V399H64V383H48V367H32V351H16V319H0V207H16V175H32V143H48V127H64V111H96V95H128V79H240ZM224 95V111H256V127H272V143H288V159H320V191H336V223H352V303H336V335H320V351H304V367H288V383H256V399H112V383H80V367H64V351H48V335H32V303H16V223H32V191H48V159H64V143H80V127H112V111H144V95H224Z" fill="black"/>
<path fill-rule="evenodd" clip-rule="evenodd" d="M192 79V63H176V31H160V-1H128V31H160V63H176V79H192Z" fill="black"/>
<path fill-rule="evenodd" clip-rule="evenodd" d="M176 399H128V447H176V399ZM144 415H160V431H144V415Z" fill="black"/>
<path fill-rule="evenodd" clip-rule="evenodd" d="M239 399H191V447H239V399ZM207 415H223V431H207V415Z" fill="black"/>
<path fill-rule="evenodd" clip-rule="evenodd" d="M320 319H272V367H320V319ZM288 335H304V351H288V335Z" fill="black"/>
<path fill-rule="evenodd" clip-rule="evenodd" d="M144 319H96V367H144V319ZM112 335H128V351H112V335Z" fill="black"/>
</g>
<defs>
<clipPath id="clip0">
<rect width="368" height="447" fill="transparent" transform="matrix(-1 0 0 1 368 0)"/>
</clipPath>
</defs>
</svg>
